<svg xmlns="http://www.w3.org/2000/svg" height="45pt" viewBox="0 -77 512.00213 512" width="130pt"><defs><style>.cls-1{fill:#d82027;}.cls-2{fill:#d82128;}</style></defs><title>Asset 1</title><g id="Layer_2" data-name="Layer 2"><g id="Layer_1-2" data-name="Layer 1"><path class="cls-1" d="M0,42.15c1-.35,1.69-.64,2.44-.88Q25.66,34,48.88,26.77a6.45,6.45,0,0,1,4-.1c3.2,1,6.45,1.78,9.86,2.7,4.48,32.73,9,65.42,13.48,98.46a7.61,7.61,0,0,0,.68-1.33Q88.94,73.82,101,21.13a1.57,1.57,0,0,0,0-.23c.2-2,1.19-2.87,3.19-3.48C119.79,12.68,135.3,7.68,150.9,3c4.41-1.34,9-2,13.44-3a3.48,3.48,0,0,1,.3.33.63.63,0,0,1,.07.22,3.35,3.35,0,0,1,0,.71l-49.09,232.3c-4.12.41-8.16.86-12.2,1.2a6.35,6.35,0,0,1-2.09-.46c-16.07-4.54-32.12-9.13-48.21-13.58a4.28,4.28,0,0,1-3.44-3.32q-18.95-64-38-128C8.23,78,4.8,66.47,1.43,55,.2,50.79.53,46.44,0,42.15Z"/><path class="cls-1" d="M817.37,182a88.3,88.3,0,0,1,15.83,7.8,49.06,49.06,0,0,1,13.86,12.76c7.34,10.35,8.61,21.64,4.78,33.56-3.55,11.06-10.36,19.93-19.15,27.34-9.61,8.1-20.53,13.7-33,15.45-20.94,2.94-40.13-1.35-56.4-15.48A40.1,40.1,0,0,1,729,234a46.9,46.9,0,0,1,3.38-19,83.37,83.37,0,0,1,15.13-24.6c3.07-3.57,6.43-6.9,9.66-10.34.59-.63,1.2-1.24,1.88-2-.47-.25-.74-.43-1-.54-14.89-5.44-23.88-16.16-27.47-31.38-2.23-9.45-.14-18.41,4.28-26.89a58.46,58.46,0,0,1,8.42-11.93c.31-.35.61-.71,1-1.15-2.91-3.2-5.71-6.36-8.61-9.43a4,4,0,0,1-1.25-3.2,18.31,18.31,0,0,0,.08-4.31c-.4-2.48.85-3.71,2.75-4.93,6.18-4,12.28-8.12,18.36-12.26a3.32,3.32,0,0,1,3.52-.46,37.44,37.44,0,0,0,5.9,2,4.41,4.41,0,0,1,3.19,2.87c1.75,3.86,3.6,7.67,5.42,11.49.34.71.73,1.39,1.13,2.14,3-.77,5.81-1.57,8.68-2.21,12.14-2.72,24.26-3,36.25.72,12.39,3.82,22.47,10.82,29,22.23,7.87,13.81,7.67,27.92.49,41.94-4.86,9.48-12.26,16.71-21,22.63-2.78,1.88-5.72,3.5-8.59,5.24Zm-24.92,26.38c-2.29.27-4.62.37-6.87.83-5.71,1.18-10.48,3.84-13.3,9.23a23.21,23.21,0,0,0-1.92,15.86,34.31,34.31,0,0,0,7.44,15.13c5.32,6.3,12.6,8.44,20.26,5.43,10.39-4.08,17-11.82,19.48-22.64,2.11-9-1.68-16.28-10-20.29A34.83,34.83,0,0,0,792.45,208.35Zm-25.4-74.23v1.19c0,10.2,5.32,16.89,15.28,19.18a33.45,33.45,0,0,0,22.39-2.7c7.73-3.7,11.73-10.8,10.24-18.73-2.14-11.33-8.69-19.45-19.27-24-6.72-2.86-13.3-2-18.71,3.15A31.8,31.8,0,0,0,767.05,134.12Z"/><path class="cls-1" d="M665.86,208.15a72.12,72.12,0,0,1-17.34,17.43C637.66,233.13,625.73,237,612.4,236a53.06,53.06,0,0,1-26-9.56,74.47,74.47,0,0,1-18.59-18.21c-3.52-4.88-5.84-10.46-8-16.07a101.62,101.62,0,0,1-6.4-30.13c-.86-14.77,1.24-29,7.37-42.56,6.27-13.84,15.87-24.65,29.39-31.81a68.54,68.54,0,0,1,22-7.11,88.91,88.91,0,0,1,40.27,3.24c18.45,5.73,30.58,17.95,36.84,36.12a116.36,116.36,0,0,1,5.4,27c1,11,1,22,1.07,33.06,0,7.59-.14,15.19-.1,22.79a212.33,212.33,0,0,0,1.68,27.49,4,4,0,0,1-.2.75l-37.79,2.4c.17-4.19-.61-8,1.38-11.78,2.14-4,3.77-8.29,5.63-12.45l1.11-2.43a2.4,2.4,0,0,0,.75-2.71l-1,2.42Zm-48-90.87,0,.33c-1,0-1.92,0-2.88,0s-1.91.18-2.86.31c-8.91,1.24-15.85,5.49-19.74,13.77a53.49,53.49,0,0,0-4.06,33.43,59.42,59.42,0,0,0,9,22.82c4.39,6.42,10.07,11.1,17.88,12.75a28.77,28.77,0,0,0,17.58-2,46.15,46.15,0,0,0,25.08-25.49c6.2-14.88,3.83-28.49-7.09-40.42-5.42-5.92-12.17-10.06-19.41-13.4a5.63,5.63,0,0,0-1.59-.49C625.79,118.32,621.83,117.81,617.88,117.28Z"/><path class="cls-1" d="M979.45,188c3.85,5.63,7.57,11,11.2,16.49a3.9,3.9,0,0,1,.46,2.46c-.36,2.93-.9,5.84-1.32,8.77a4.24,4.24,0,0,1-1.56,2.83c-4.41,3.7-8.76,7.47-13.18,11.17a6.68,6.68,0,0,1-2.48,1.32c-11.49,3.12-23.17,4.9-35.09,4-19.81-1.52-34.35-11-43.08-29a87.45,87.45,0,0,1-7.73-27.83c-1.58-13-1.24-26-.08-39A74.85,74.85,0,0,1,902.65,99c8.29-10.58,19.2-17,32.61-18.78A55.11,55.11,0,0,1,965.66,85c8.08,3.67,15.15,8.71,20.31,16,4.82,6.83,8.64,14.21,10.22,22.54,3.06,16.15-1.29,30.24-12.2,42.34a47.21,47.21,0,0,1-25.23,14.85c-12.64,2.81-24.25.19-34.88-7.1a57.76,57.76,0,0,1-10-9,20,20,0,0,1-1.25-1.66l-.65.37c.36,2.57.62,5.15,1.09,7.69,1.29,7,3.49,13.63,7.59,19.52,8,11.52,20.47,15.32,33.55,10.17a47.88,47.88,0,0,0,16.56-11.21,4.6,4.6,0,0,1,4-1.58C976.29,188.07,977.81,188,979.45,188Zm-31.16-39c6.7-.15,12.72-1.85,17.32-7,2.91-3.22,5-7,5-11.38a18.87,18.87,0,0,0-5.4-13.21,24.06,24.06,0,0,0-18.73-7.58A20.65,20.65,0,0,0,929,119.17a27.36,27.36,0,0,0-4.26,12.58,10.79,10.79,0,0,0,1.5,6.89,16.17,16.17,0,0,0,5,5.13A30.88,30.88,0,0,0,948.29,149Z"/><path class="cls-1" d="M281.3,77.56h31.41c-1,4.06-2,7.94-3,12.28,1.15-.48,1.86-.76,2.55-1.08a113.9,113.9,0,0,1,24.63-8.54,50,50,0,0,1,20-.53c10.1,2,17.46,7.91,22.94,16.41,4.59,7.15,7.38,15.05,9.46,23.22a199.4,199.4,0,0,1,5,30.73c1.18,12.58,1.86,25.18,2,37.82q.18,22.66.38,45.33a2.44,2.44,0,0,1-.09.47c-1.81.52-31.44.3-35.45-.29-.09-3.06-.22-6.16-.25-9.25a6.58,6.58,0,0,1,.53-2.08A183.07,183.07,0,0,0,370,189.42c1.85-11.68,2.4-23.37-.25-35a44,44,0,0,0-8.6-18.54c-9.23-11.29-24.08-14.05-36.72-6.77-7.79,4.48-13.07,11.16-16.59,19.31a59.8,59.8,0,0,0-4.68,23.11c-.23,14.3,3.15,27.88,8.31,41.09a70.79,70.79,0,0,0,3.28,7.71c2.3,4.37,2,6.87,1.78,12.34-10.78.64-21.61.33-32.63.86-.68-3.29-1.36-6.4-2-9.52a345.87,345.87,0,0,1-5.14-35.82c-.63-7.24-.88-14.52-1.25-21.78-.14-2.71-.17-5.43-.19-8.14a424.85,424.85,0,0,1,2.18-46.92c1.1-10.82,2.32-21.62,3.49-32.43C281,78.52,281.16,78.14,281.3,77.56Z"/><path class="cls-1" d="M454.16,80.81,494,79c.24,9.92.48,19.63.73,29.61l21.91,2.43c1.51,11.86,3,23.72,4.57,35.92l-23.57.87c.28,14.53.75,29.09,1.16,43.64s.76,29.18,1.15,44.13l-47.12-1.5c0-1.17,0-2.11,0-3,.13-5.59.29-11.18.38-16.77.22-12.94.4-25.89.62-38.83.14-8.23.34-16.46.51-24.68,0-.86,0-1.72,0-2.88l-27.24,1c.57-14.56,1.42-28.87,2.14-43.51,2.73-.12,5.42,0,8.1-.06s5.27-.14,7.91-.16,5.41,0,8.38,0c.17-4.06.39-8,.47-12S454.16,85.25,454.16,80.81Z"/><path class="cls-1" d="M236.55,119.73c2.94,37.1,5.85,73.88,8.79,111l-52.19,3c2.31-37.79,4.6-75.3,6.91-113.15Z"/><path class="cls-2" d="M241.65,77.2c-.12,4.1.32,8-.84,12-2,6.74-3.66,13.58-5.46,20.37-.21.77-.43,1.53-.67,2.38H200.05c-1.54-11.52-4.54-22.84-3.6-34.73Z"/></g></g></svg>