<svg xmlns="http://www.w3.org/2000/svg" height="20pt" width="100pt" viewBox="0 0 87.64 24.59"><defs><style>.cls-1{fill:#FFFFFF;}.cls-2{fill:#d82128;}</style></defs><title>Asset 3</title><g id="Layer_2" data-name="Layer 2"><g id="Layer_1-2" data-name="Layer 1"><g id="Layer_1-2-2" data-name="Layer 1-2"><path class="cls-1" d="M0,3.7l.21-.07L4.3,2.35a.59.59,0,0,1,.35,0c.28.09.56.16.86.24.4,2.88.8,5.75,1.19,8.66l.06-.12Q7.81,6.49,8.88,1.86v0c0-.18.1-.26.28-.31,1.37-.42,2.73-.86,4.1-1.27.39-.11.79-.17,1.18-.26l0,0s0,0,0,0V.11L10.16,20.53l-1.07.1a.37.37,0,0,1-.18,0L4.67,19.4a.37.37,0,0,1-.3-.29Q2.7,13.49,1,7.86c-.31-1-.61-2-.9-3A7.11,7.11,0,0,1,0,3.7Z"/><path class="cls-1" d="M71.84,16a8.13,8.13,0,0,1,1.39.68,4.21,4.21,0,0,1,1.22,1.12,3.18,3.18,0,0,1,.42,2.95,5.29,5.29,0,0,1-1.68,2.41,5.72,5.72,0,0,1-2.9,1.35,6,6,0,0,1-5-1.36,3.49,3.49,0,0,1-1.26-2.58,4.15,4.15,0,0,1,.3-1.67,7.13,7.13,0,0,1,1.33-2.17c.27-.31.56-.6.85-.9l.16-.18-.08-.05a3.67,3.67,0,0,1-2.42-2.76,3.36,3.36,0,0,1,.38-2.36,5.11,5.11,0,0,1,.74-1.05l.09-.1-.76-.83a.33.33,0,0,1-.11-.28,1.6,1.6,0,0,0,0-.38c0-.22.07-.32.24-.43.54-.35,1.08-.71,1.61-1.08a.29.29,0,0,1,.31,0,4.56,4.56,0,0,0,.52.18.37.37,0,0,1,.28.25c.15.34.32.67.48,1l.1.19.76-.2A6,6,0,0,1,72,7.79a4.21,4.21,0,0,1,2.55,2,3.69,3.69,0,0,1,0,3.69,5.51,5.51,0,0,1-1.85,2c-.24.16-.5.3-.75.46Zm-2.19,2.31c-.2,0-.41,0-.6.08a1.56,1.56,0,0,0-1.17.81,2,2,0,0,0-.17,1.39,3,3,0,0,0,.65,1.33,1.5,1.5,0,0,0,1.78.48,2.66,2.66,0,0,0,1.71-2A1.47,1.47,0,0,0,71,18.63a3.1,3.1,0,0,0-1.33-.32Zm-2.23-6.52v.11a1.59,1.59,0,0,0,1.34,1.68,2.92,2.92,0,0,0,2-.24,1.48,1.48,0,0,0,.9-1.64,2.75,2.75,0,0,0-1.7-2.11,1.43,1.43,0,0,0-1.64.27,2.79,2.79,0,0,0-.87,1.93Z"/><path class="cls-1" d="M58.52,18.29A6.18,6.18,0,0,1,57,19.83a4.81,4.81,0,0,1-3.18.91,4.59,4.59,0,0,1-2.28-.84,5.91,5.91,0,0,1-2.34-3,8.89,8.89,0,0,1-.56-2.65,7.75,7.75,0,0,1,.65-3.74,5.71,5.71,0,0,1,2.58-2.8,6.23,6.23,0,0,1,1.93-.62,7.85,7.85,0,0,1,3.54.28,4.78,4.78,0,0,1,3.24,3.18,10.61,10.61,0,0,1,.48,2.37c.08,1,.08,1.94.09,2.91,0,.66,0,1.33,0,2a19.53,19.53,0,0,0,.15,2.42.14.14,0,0,1,0,.06L58,20.51a2.24,2.24,0,0,1,.12-1c.19-.35.33-.73.5-1.1l.09-.21a.22.22,0,0,0,.07-.24l-.09.22Zm-4.22-8v0h-.25l-.25,0a2.15,2.15,0,0,0-1.74,1.21,4.73,4.73,0,0,0-.35,2.94,5.22,5.22,0,0,0,.79,2,2.51,2.51,0,0,0,1.57,1.12,2.59,2.59,0,0,0,1.55-.18,4,4,0,0,0,2.2-2.24,3.13,3.13,0,0,0-.62-3.55,5.34,5.34,0,0,0-1.71-1.18l-.14,0-1-.14Z"/><path class="cls-1" d="M86.08,16.52c.34.5.67,1,1,1.45a.34.34,0,0,1,0,.22c0,.26-.08.51-.12.77a.38.38,0,0,1-.13.25l-1.16,1a.94.94,0,0,1-.22.12,9.19,9.19,0,0,1-3.08.35,4.32,4.32,0,0,1-3.79-2.55,7.71,7.71,0,0,1-.68-2.45,16.29,16.29,0,0,1,0-3.42A6.69,6.69,0,0,1,79.33,8.7,4.26,4.26,0,0,1,82.2,7.05a4.81,4.81,0,0,1,2.67.42,4.34,4.34,0,0,1,1.79,1.41,5.17,5.17,0,0,1,.9,2,4.17,4.17,0,0,1-1.08,3.72,4.08,4.08,0,0,1-2.21,1.3,3.77,3.77,0,0,1-3.07-.62,5.07,5.07,0,0,1-.88-.79l-.11-.15-.06,0c0,.22.06.45.1.67a4.27,4.27,0,0,0,.67,1.72,2.36,2.36,0,0,0,3,.89,4.23,4.23,0,0,0,1.45-1,.37.37,0,0,1,.35-.14C85.81,16.53,85.94,16.52,86.08,16.52ZM83.35,13.1a2,2,0,0,0,1.52-.62,1.51,1.51,0,0,0,.44-1,1.64,1.64,0,0,0-.48-1.16,2.11,2.11,0,0,0-1.64-.67,1.85,1.85,0,0,0-1.54.82,2.48,2.48,0,0,0-.37,1.11,1,1,0,0,0,.13.61,1.45,1.45,0,0,0,.44.45A2.82,2.82,0,0,0,83.35,13.1Z"/><path class="cls-1" d="M24.72,6.82h2.76c-.08.35-.17.69-.26,1.08l.22-.1a10.52,10.52,0,0,1,2.17-.75,4.53,4.53,0,0,1,1.76,0,3.07,3.07,0,0,1,2,1.45,6.5,6.5,0,0,1,.83,2,16.35,16.35,0,0,1,.44,2.7c.11,1.1.17,2.21.18,3.32l0,4v0c-.16,0-2.77,0-3.12,0,0-.27,0-.54,0-.81a.53.53,0,0,1,0-.18,15.76,15.76,0,0,0,.76-2.87,8.18,8.18,0,0,0,0-3.08,3.87,3.87,0,0,0-.76-1.63,2.48,2.48,0,0,0-3.23-.59A3.47,3.47,0,0,0,27.06,13a5.51,5.51,0,0,0-.42,2,9.36,9.36,0,0,0,.74,3.61,5.58,5.58,0,0,0,.28.67,1.72,1.72,0,0,1,.16,1.09c-.95.06-1.9,0-2.87.08-.06-.29-.12-.57-.17-.84a30.25,30.25,0,0,1-.46-3.15c-.05-.64-.07-1.28-.11-1.91,0-.24,0-.48,0-.72a37.75,37.75,0,0,1,.19-4.12c.1-.95.2-1.9.31-2.85A.6.6,0,0,1,24.72,6.82Z"/><path class="cls-1" d="M39.92,7.1l3.5-.16c0,.88,0,1.73.06,2.61l1.93.21c.13,1,.26,2.08.4,3.16L43.74,13c0,1.28.06,2.56.1,3.84s.07,2.56.1,3.88l-4.14-.13v-.27c0-.49,0-1,0-1.47l.06-3.42c0-.72,0-1.44,0-2.16V13l-2.39.09c.05-1.28.12-2.54.19-3.82h2.14c0-.36,0-.71,0-1.06S39.92,7.49,39.92,7.1Z"/><path class="cls-1" d="M20.79,10.52c.26,3.26.51,6.5.77,9.76L17,20.54l.6-9.94Z"/><path class="cls-2" d="M21.24,6.79a3.7,3.7,0,0,1-.08,1c-.17.59-.32,1.19-.47,1.79,0,.07,0,.13-.06.21H17.58a14.16,14.16,0,0,1-.31-3Z"/></g></g></g></svg>